<?xml version="1.0" encoding="UTF-8" standalone="no"?>
<!DOCTYPE svg PUBLIC "-//W3C//DTD SVG 1.1//EN"
 "http://www.w3.org/Graphics/SVG/1.1/DTD/svg11.dtd">
<!-- Generated by graphviz version 2.48.0 (20210717.1556)
 -->
<!-- Pages: 1 -->
<svg width="852pt" height="404pt"
 viewBox="0.00 0.00 851.71 404.00" xmlns="http://www.w3.org/2000/svg" xmlns:xlink="http://www.w3.org/1999/xlink">
<g id="graph0" class="graph" transform="scale(1 1) rotate(0) translate(4 400)">
<polygon fill="white" stroke="transparent" points="-4,4 -4,-400 847.71,-400 847.71,4 -4,4"/>
<!-- [root] aws_eip.lb (expand) -->
<g id="node1" class="node">
<title>[root] aws_eip.lb (expand)</title>
<polygon fill="none" stroke="black" points="433.53,-180 356.53,-180 356.53,-144 433.53,-144 433.53,-180"/>
<text text-anchor="middle" x="395.03" y="-158.3" font-family="Times,serif" font-size="14.00">aws_eip.lb</text>
</g>
<!-- [root] aws_instance.myec2 (expand) -->
<g id="node2" class="node">
<title>[root] aws_instance.myec2 (expand)</title>
<polygon fill="none" stroke="black" points="461.03,-108 329.03,-108 329.03,-72 461.03,-72 461.03,-108"/>
<text text-anchor="middle" x="395.03" y="-86.3" font-family="Times,serif" font-size="14.00">aws_instance.myec2</text>
</g>
<!-- [root] aws_eip.lb (expand)&#45;&gt;[root] aws_instance.myec2 (expand) -->
<g id="edge1" class="edge">
<title>[root] aws_eip.lb (expand)&#45;&gt;[root] aws_instance.myec2 (expand)</title>
<path fill="none" stroke="black" d="M395.03,-143.7C395.03,-135.98 395.03,-126.71 395.03,-118.11"/>
<polygon fill="black" stroke="black" points="398.53,-118.1 395.03,-108.1 391.53,-118.1 398.53,-118.1"/>
</g>
<!-- [root] provider[&quot;registry.terraform.io/hashicorp/aws&quot;] -->
<g id="node4" class="node">
<title>[root] provider[&quot;registry.terraform.io/hashicorp/aws&quot;]</title>
<polygon fill="none" stroke="black" points="395.03,-36 136.97,-18 395.03,0 653.1,-18 395.03,-36"/>
<text text-anchor="middle" x="395.03" y="-14.3" font-family="Times,serif" font-size="14.00">provider[&quot;registry.terraform.io/hashicorp/aws&quot;]</text>
</g>
<!-- [root] aws_instance.myec2 (expand)&#45;&gt;[root] provider[&quot;registry.terraform.io/hashicorp/aws&quot;] -->
<g id="edge2" class="edge">
<title>[root] aws_instance.myec2 (expand)&#45;&gt;[root] provider[&quot;registry.terraform.io/hashicorp/aws&quot;]</title>
<path fill="none" stroke="black" d="M395.03,-71.7C395.03,-63.98 395.03,-54.71 395.03,-46.11"/>
<polygon fill="black" stroke="black" points="398.53,-46.1 395.03,-36.1 391.53,-46.1 398.53,-46.1"/>
</g>
<!-- [root] aws_security_group.allow_tls (expand) -->
<g id="node3" class="node">
<title>[root] aws_security_group.allow_tls (expand)</title>
<polygon fill="none" stroke="black" points="487.03,-252 303.03,-252 303.03,-216 487.03,-216 487.03,-252"/>
<text text-anchor="middle" x="395.03" y="-230.3" font-family="Times,serif" font-size="14.00">aws_security_group.allow_tls</text>
</g>
<!-- [root] aws_security_group.allow_tls (expand)&#45;&gt;[root] aws_eip.lb (expand) -->
<g id="edge3" class="edge">
<title>[root] aws_security_group.allow_tls (expand)&#45;&gt;[root] aws_eip.lb (expand)</title>
<path fill="none" stroke="black" d="M395.03,-215.7C395.03,-207.98 395.03,-198.71 395.03,-190.11"/>
<polygon fill="black" stroke="black" points="398.53,-190.1 395.03,-180.1 391.53,-190.1 398.53,-190.1"/>
</g>
<!-- [root] meta.count&#45;boundary (EachMode fixup) -->
<g id="node5" class="node">
<title>[root] meta.count&#45;boundary (EachMode fixup)</title>
<ellipse fill="none" stroke="black" cx="180.03" cy="-306" rx="180.07" ry="18"/>
<text text-anchor="middle" x="180.03" y="-302.3" font-family="Times,serif" font-size="14.00">[root] meta.count&#45;boundary (EachMode fixup)</text>
</g>
<!-- [root] meta.count&#45;boundary (EachMode fixup)&#45;&gt;[root] aws_security_group.allow_tls (expand) -->
<g id="edge4" class="edge">
<title>[root] meta.count&#45;boundary (EachMode fixup)&#45;&gt;[root] aws_security_group.allow_tls (expand)</title>
<path fill="none" stroke="black" d="M230.17,-288.68C260.76,-278.72 300.11,-265.91 332.69,-255.3"/>
<polygon fill="black" stroke="black" points="334.14,-258.51 342.57,-252.08 331.98,-251.85 334.14,-258.51"/>
</g>
<!-- [root] provider[&quot;registry.terraform.io/hashicorp/aws&quot;] (close) -->
<g id="node6" class="node">
<title>[root] provider[&quot;registry.terraform.io/hashicorp/aws&quot;] (close)</title>
<ellipse fill="none" stroke="black" cx="611.03" cy="-306" rx="232.86" ry="18"/>
<text text-anchor="middle" x="611.03" y="-302.3" font-family="Times,serif" font-size="14.00">[root] provider[&quot;registry.terraform.io/hashicorp/aws&quot;] (close)</text>
</g>
<!-- [root] provider[&quot;registry.terraform.io/hashicorp/aws&quot;] (close)&#45;&gt;[root] aws_security_group.allow_tls (expand) -->
<g id="edge5" class="edge">
<title>[root] provider[&quot;registry.terraform.io/hashicorp/aws&quot;] (close)&#45;&gt;[root] aws_security_group.allow_tls (expand)</title>
<path fill="none" stroke="black" d="M559.85,-288.41C529.21,-278.48 490.04,-265.79 457.58,-255.27"/>
<polygon fill="black" stroke="black" points="458.33,-251.83 447.73,-252.08 456.17,-258.49 458.33,-251.83"/>
</g>
<!-- [root] root -->
<g id="node7" class="node">
<title>[root] root</title>
<ellipse fill="none" stroke="black" cx="395.03" cy="-378" rx="48.19" ry="18"/>
<text text-anchor="middle" x="395.03" y="-374.3" font-family="Times,serif" font-size="14.00">[root] root</text>
</g>
<!-- [root] root&#45;&gt;[root] meta.count&#45;boundary (EachMode fixup) -->
<g id="edge6" class="edge">
<title>[root] root&#45;&gt;[root] meta.count&#45;boundary (EachMode fixup)</title>
<path fill="none" stroke="black" d="M360.01,-365.6C327.54,-355.03 278.56,-339.08 239.89,-326.49"/>
<polygon fill="black" stroke="black" points="240.89,-323.13 230.3,-323.36 238.72,-329.79 240.89,-323.13"/>
</g>
<!-- [root] root&#45;&gt;[root] provider[&quot;registry.terraform.io/hashicorp/aws&quot;] (close) -->
<g id="edge7" class="edge">
<title>[root] root&#45;&gt;[root] provider[&quot;registry.terraform.io/hashicorp/aws&quot;] (close)</title>
<path fill="none" stroke="black" d="M430.22,-365.6C462.62,-355.1 511.38,-339.29 550.11,-326.74"/>
<polygon fill="black" stroke="black" points="551.29,-330.04 559.72,-323.63 549.13,-323.38 551.29,-330.04"/>
</g>
</g>
</svg>
